<?xml version="1.0" standalone="no"?>
<!DOCTYPE svg PUBLIC "-//W3C//DTD SVG 20010904//EN"
 "http://www.w3.org/TR/2001/REC-SVG-20010904/DTD/svg10.dtd">
<svg version="1.0" xmlns="http://www.w3.org/2000/svg"
 width="1246.000000pt" height="1280.000000pt" viewBox="0 0 1246.000000 1280.000000"
 preserveAspectRatio="xMidYMid meet">
<metadata>
Created by potrace 1.15, written by Peter Selinger 2001-2017
</metadata>
<g transform="translate(0.000000,1280.000000) scale(0.100000,-0.100000)"
fill="#000000" stroke="none">
<path d="M3 12783 c-6 -16 4 -5653 10 -5660 6 -6 420 218 507 275 101 65 212
156 296 244 84 87 94 104 94 164 0 81 53 149 140 179 53 18 222 118 440 258
199 129 258 170 654 470 181 136 330 247 331 245 8 -9 25 -184 25 -258 0 -58
4 -91 13 -98 6 -5 45 -12 85 -14 47 -4 79 -11 91 -22 33 -30 57 -14 53 36 -5
60 38 16 58 -60 17 -65 39 -82 108 -82 92 0 342 80 556 178 95 43 101 44 170
39 98 -8 140 -22 181 -61 19 -18 78 -62 130 -96 52 -34 95 -67 95 -72 0 -6
-49 -105 -109 -222 -60 -116 -119 -245 -131 -286 -12 -42 -88 -204 -170 -365
-288 -567 -331 -638 -439 -714 -91 -63 -95 -107 -15 -143 39 -17 62 -20 128
-16 102 5 160 34 190 93 17 31 30 42 61 51 40 11 65 40 65 77 0 37 45 103 135
198 154 163 308 382 363 517 49 121 239 374 385 512 237 224 249 238 317 400
23 54 47 101 55 103 7 3 63 -16 125 -43 164 -72 173 -74 209 -55 62 32 79 114
36 177 -14 20 -25 42 -25 48 0 6 15 26 34 45 62 61 69 173 25 365 -22 96 -70
246 -106 333 -32 77 -41 156 -58 517 -17 354 -25 416 -71 526 -18 44 -38 112
-44 150 -6 42 -24 95 -45 137 -40 79 -40 77 -19 77 24 0 89 55 254 215 150
145 187 170 318 216 139 48 244 135 372 304 54 72 151 188 216 259 107 117
168 172 360 329 32 27 175 158 317 290 l258 242 -1348 6 c-741 3 -2321 7
-3511 8 -2003 1 -2163 0 -2169 -16z m4800 -1928 c4 -8 2 -40 -3 -72 -14 -81
-14 -79 28 -100 44 -22 68 -65 94 -173 37 -156 34 -353 -9 -485 -29 -93 -44
-92 -93 6 -34 66 -77 106 -126 115 -103 19 -243 -31 -278 -100 -19 -38 -19
-40 -1 -111 11 -46 15 -86 11 -109 -6 -31 -2 -42 23 -74 28 -36 60 -117 49
-127 -3 -3 -26 4 -52 16 -60 26 -82 21 -177 -40 -118 -76 -196 -146 -221 -199
-22 -45 -50 -64 -69 -45 -10 10 -32 205 -50 436 l-12 158 244 247 c261 264
346 357 373 410 22 42 102 131 184 205 70 61 77 65 85 42z m-1019 -1082 c23
-46 26 -80 35 -339 6 -203 11 -255 25 -281 30 -59 72 -55 227 23 47 23 100 54
116 68 37 31 73 33 98 6 15 -17 17 -31 12 -103 -12 -145 -51 -237 -112 -263
-41 -17 -69 -8 -126 37 -47 37 -340 180 -431 210 -65 21 -70 21 -111 5 -24 -9
-83 -42 -132 -72 -49 -31 -136 -77 -194 -101 -58 -25 -139 -60 -180 -79 -80
-37 -240 -71 -284 -61 -56 15 -147 118 -147 168 0 44 50 91 187 176 68 43 166
111 216 152 118 95 234 170 486 315 113 65 221 129 240 142 46 31 57 30 75 -3z"/>
<path d="M9931 12753 c-154 -3 -188 -6 -203 -20 -48 -43 -2 -107 110 -153 106
-44 126 -58 111 -76 -8 -10 -34 -14 -89 -14 -74 0 -80 -2 -109 -31 -47 -46
-39 -104 17 -133 16 -8 77 -16 147 -19 167 -8 353 -66 290 -91 -9 -3 -69 -13
-133 -21 -140 -18 -285 -55 -367 -94 -33 -16 -82 -34 -110 -40 -62 -15 -123
-48 -147 -81 -23 -31 -42 -113 -118 -505 -33 -170 -65 -333 -70 -362 -6 -28
-28 -87 -50 -131 -92 -191 -117 -301 -99 -445 9 -77 19 -108 59 -192 27 -55
65 -155 84 -222 20 -67 49 -156 66 -198 16 -41 30 -86 30 -98 0 -32 -27 -67
-53 -67 -12 0 -53 -21 -91 -47 l-69 -47 6 -80 c11 -148 44 -214 114 -231 24
-6 47 -15 53 -21 6 -6 19 -44 31 -85 25 -94 68 -207 80 -215 6 -3 18 1 28 10
17 16 19 13 23 -60 4 -64 9 -81 27 -95 11 -9 21 -22 21 -28 0 -13 36 -51 49
-51 5 0 26 15 46 34 28 27 52 38 110 51 40 9 79 22 85 30 17 20 14 101 -4 154
-32 88 -15 127 48 116 42 -8 266 -131 319 -175 44 -37 60 -71 81 -177 22 -107
74 -513 91 -711 7 -89 21 -186 29 -216 9 -29 25 -133 36 -232 11 -98 29 -228
40 -289 11 -60 33 -201 49 -313 32 -212 50 -280 51 -184 0 30 -16 165 -35 300
-19 136 -48 356 -65 490 -16 134 -46 341 -65 460 -35 210 -75 490 -75 518 0
51 66 -72 77 -144 3 -20 17 -50 30 -66 39 -46 53 -81 87 -214 18 -70 44 -147
57 -172 23 -45 23 -48 30 -515 9 -558 23 -735 53 -704 6 5 -10 573 -23 883 -6
121 -5 209 0 224 7 18 3 40 -16 87 -13 34 -41 116 -60 181 -46 152 -69 215
-107 289 -36 71 -79 188 -71 195 6 5 253 -250 253 -262 0 -4 -12 -13 -27 -20
-16 -7 -28 -19 -28 -27 0 -14 5 -17 55 -40 14 -7 35 -27 47 -46 43 -65 58 -69
252 -73 212 -5 222 -9 331 -120 58 -60 87 -81 128 -96 40 -14 58 -27 80 -60
16 -23 68 -70 122 -109 52 -37 111 -85 131 -107 22 -24 50 -43 69 -46 39 -8
47 -26 26 -56 -24 -34 -20 -64 13 -85 82 -52 193 -144 229 -189 22 -28 59 -65
82 -84 23 -18 46 -43 50 -56 14 -35 -6 -92 -39 -109 -58 -30 -211 -216 -211
-257 0 -17 15 -18 265 -18 l265 0 0 2955 0 2955 -1172 -2 c-645 -2 -1256 -4
-1357 -5z m-361 -1068 c44 -23 60 -53 60 -111 0 -37 -6 -58 -20 -75 -20 -24
-20 -24 -36 -4 -42 53 -56 97 -49 151 3 30 9 54 11 54 3 0 18 -7 34 -15z m404
-164 c47 -7 76 -16 92 -32 16 -15 38 -23 64 -25 21 -1 46 -8 54 -16 8 -8 65
-27 126 -42 61 -15 155 -43 208 -63 53 -19 118 -37 144 -40 43 -4 50 -9 78
-53 17 -26 69 -85 115 -129 47 -45 85 -89 85 -97 0 -28 -33 -72 -64 -88 -17
-8 -53 -22 -79 -31 -62 -22 -131 -75 -135 -103 -3 -19 6 -26 50 -46 29 -13 71
-29 93 -36 22 -7 51 -21 64 -31 13 -11 32 -19 42 -19 11 0 19 -4 19 -10 0 -14
-35 -30 -64 -30 -14 0 -28 -4 -31 -10 -3 -5 -16 -10 -29 -10 -12 0 -26 -3 -30
-7 -4 -5 -13 -8 -19 -8 -18 0 -38 -74 -35 -130 l3 -50 65 -17 c49 -13 71 -25
92 -50 l27 -33 -22 -7 c-12 -3 -36 -6 -53 -7 -17 -1 -48 -12 -68 -26 -20 -14
-45 -25 -56 -25 -24 0 -33 -15 -40 -65 l-5 -40 -58 3 c-67 5 -223 -11 -391
-39 -109 -18 -139 -26 -236 -64 -44 -18 -124 -19 -138 -2 -5 6 -18 62 -27 122
-37 248 -77 427 -120 541 l-24 65 35 39 c20 21 44 42 54 45 13 4 23 26 34 78
9 40 25 86 36 102 34 51 28 138 -16 223 l-36 70 26 75 c14 41 26 80 26 86 0 5
4 21 9 35 9 21 14 24 38 16 15 -5 59 -13 97 -19z m885 -1775 c6 -7 26 -16 43
-20 39 -8 168 -66 168 -76 0 -4 -9 -15 -21 -26 -12 -10 -32 -41 -46 -68 l-24
-48 41 4 41 4 -25 -19 c-14 -10 -26 -28 -26 -40 -1 -21 -2 -21 -23 6 -13 15
-26 24 -30 21 -11 -11 -8 -114 4 -157 5 -21 24 -53 40 -72 l31 -35 -25 -11
c-14 -6 -30 -21 -35 -33 -8 -16 -11 -17 -11 -4 -1 13 -8 16 -36 11 -40 -6 -65
9 -58 36 6 23 -14 38 -30 22 -6 -6 -19 -11 -29 -11 -10 0 -21 -7 -24 -15 -10
-24 -31 -17 -44 14 -7 19 -10 50 -6 83 7 59 12 120 21 220 8 104 24 166 52
198 28 34 36 36 52 16z m-402 -68 c6 -7 16 -31 23 -53 7 -22 18 -47 25 -55 7
-8 15 -55 18 -103 4 -49 12 -95 18 -103 13 -16 18 -142 6 -161 -8 -13 -143
120 -161 158 -5 11 -35 35 -66 54 -72 44 -140 116 -140 149 0 22 7 26 58 37
71 16 107 31 152 63 40 29 53 31 67 14z m543 -666 c0 -10 -5 -23 -11 -29 -5
-5 -10 -30 -11 -53 0 -38 4 -47 33 -71 32 -27 33 -29 15 -42 -15 -11 -17 -17
-7 -35 18 -34 14 -45 -48 -138 -58 -88 -131 -169 -131 -146 0 7 -10 12 -23 12
-60 0 -144 157 -154 287 -4 53 -2 77 8 89 17 20 89 53 199 89 47 15 92 34 100
41 20 19 30 18 30 -4z m89 -418 c1 -23 12 -61 26 -88 30 -57 24 -61 -71 -53
-74 6 -83 10 -66 37 16 27 15 29 -8 23 -19 -5 -20 -4 -8 23 19 43 79 146 97
168 15 17 16 16 23 -25 3 -24 7 -62 7 -85z"/>
<path d="M7868 6421 c-53 -3 -99 -9 -103 -12 -3 -4 11 -30 33 -59 22 -28 45
-71 52 -93 8 -23 23 -55 35 -72 32 -44 215 -386 259 -483 20 -45 72 -189 115
-320 95 -289 152 -428 196 -479 31 -36 69 -90 213 -301 29 -42 54 -86 56 -97
20 -101 30 -136 56 -190 16 -35 49 -83 72 -108 24 -25 53 -59 65 -75 12 -16
43 -37 70 -47 62 -23 91 -51 165 -158 l60 -89 -93 -96 c-132 -136 -275 -268
-335 -307 -71 -48 -145 -74 -236 -86 -98 -12 -115 -5 -181 76 -77 95 -82 109
-68 181 16 79 2 109 -71 154 -29 18 -56 38 -61 46 -6 10 -14 9 -40 -5 -17 -10
-57 -22 -87 -25 -97 -11 -204 -39 -227 -59 -30 -26 -48 -74 -35 -90 7 -8 7
-28 2 -57 -17 -87 -13 -113 23 -141 21 -17 44 -52 61 -93 l28 -66 -36 -49
c-41 -55 -88 -153 -106 -221 -18 -66 -49 -122 -140 -250 -110 -155 -250 -435
-279 -558 -12 -49 -21 -98 -21 -109 0 -30 39 -73 84 -94 38 -17 42 -17 54 -2
16 22 15 72 -3 103 -8 14 -14 40 -15 58 0 29 3 33 23 30 16 -2 23 -11 25 -33
5 -53 10 -61 29 -42 20 19 22 124 4 170 -15 37 -5 54 63 106 57 45 88 87 151
209 21 41 69 108 107 150 38 41 78 93 89 114 11 22 27 42 35 45 8 3 66 -28
137 -73 67 -43 183 -116 257 -162 74 -47 146 -94 159 -106 39 -35 81 -97 81
-121 0 -13 20 -45 46 -74 31 -34 47 -61 48 -81 1 -16 7 -35 14 -42 17 -17 15
-25 -9 -31 -17 -5 -18 -8 -8 -25 10 -16 10 -26 1 -46 -16 -35 -29 -33 -35 6
-3 18 -17 65 -32 105 l-27 71 -54 -19 c-76 -25 -130 -57 -144 -85 -15 -27 3
-111 51 -235 28 -73 33 -79 67 -89 20 -5 62 -10 93 -10 l56 0 7 -107 c3 -59
11 -112 16 -117 6 -6 10 -45 10 -88 0 -50 4 -78 11 -78 6 0 22 -9 36 -20 32
-25 38 -25 63 2 25 28 26 42 0 26 -10 -7 -22 -10 -25 -7 -9 10 -18 129 -9 129
5 -1 22 -17 38 -38 16 -21 26 -29 22 -17 -12 40 -26 162 -26 228 0 37 -4 67
-9 67 -5 0 -11 -8 -13 -17 -2 -11 -6 -14 -10 -7 -4 6 0 23 8 38 9 19 14 59 14
117 0 96 9 113 43 81 29 -26 109 -66 188 -92 35 -12 70 -26 77 -32 7 -6 27 -8
46 -5 23 4 46 -1 70 -14 24 -13 56 -19 98 -19 35 -1 90 -7 123 -15 33 -8 116
-22 185 -30 230 -29 266 -52 319 -211 18 -54 44 -116 57 -137 13 -20 84 -99
157 -175 211 -218 287 -303 287 -318 0 -28 162 -114 216 -114 22 0 42 28 59
82 30 96 57 158 69 158 11 -1 178 -331 192 -380 4 -14 32 -79 63 -145 31 -66
81 -194 110 -285 69 -213 74 -223 128 -287 l45 -53 564 0 564 0 0 3215 0 3215
-2242 -2 c-1234 -1 -2287 -4 -2340 -7z m1593 -2784 c20 -14 40 -39 49 -63 8
-23 34 -66 58 -96 48 -62 92 -165 92 -214 0 -32 -1 -33 -57 -39 -32 -3 -72
-13 -89 -23 -39 -21 -183 -127 -281 -207 -100 -81 -123 -95 -155 -95 -15 0
-39 -11 -54 -24 l-28 -23 22 -12 c13 -7 20 -17 16 -22 -8 -14 -91 -2 -120 16
-43 28 -156 281 -141 317 3 9 30 29 61 46 39 22 89 69 168 158 105 116 252
244 333 287 42 23 86 21 126 -6z m330 -574 c12 -27 37 -69 56 -94 18 -26 33
-54 33 -62 0 -9 11 -29 25 -45 18 -22 28 -49 34 -99 11 -79 21 -108 90 -258
28 -60 51 -117 51 -126 0 -24 -65 -109 -111 -146 -65 -51 -113 -44 -147 22
-28 55 -61 307 -82 625 -12 172 -8 230 15 230 7 0 23 -21 36 -47z m-295 -400
c37 -86 97 -264 90 -271 -4 -3 -51 38 -106 93 l-99 98 16 31 c23 45 62 106 68
106 3 0 17 -26 31 -57z m-45 -170 c121 -115 208 -241 209 -300 l0 -23 -72 26
c-128 46 -165 69 -173 106 -4 18 -8 40 -11 49 -6 20 -46 39 -84 39 -40 0 -44
13 -19 62 32 64 59 98 75 98 9 0 42 -26 75 -57z m-746 -429 c-3 -19 -10 -34
-15 -34 -13 0 -12 16 2 65 14 47 24 24 13 -31z m1483 35 c7 -11 53 -97 102
-190 49 -94 108 -198 130 -231 22 -33 40 -62 40 -65 0 -24 -397 333 -436 392
-16 24 -15 27 1 45 10 11 23 20 30 20 7 0 31 13 55 29 47 31 59 31 78 0z
m-1449 -61 c0 -7 -4 -22 -8 -32 -10 -26 -25 -3 -16 24 7 22 25 28 24 8z m39
-124 c-10 -10 -28 6 -28 24 0 15 1 15 17 -1 9 -9 14 -19 11 -23z m1440 -131
c196 -162 347 -294 369 -325 67 -94 38 -237 -48 -238 -34 0 -108 65 -159 140
-61 89 -280 485 -280 505 0 12 17 0 118 -82z m457 -435 c5 -18 3 -28 -4 -28
-15 0 -34 39 -26 57 7 21 21 7 30 -29z"/>
<path d="M50 3280 l0 -3130 225 0 225 0 0 38 c0 26 10 53 31 85 28 42 31 56
39 168 11 136 15 154 41 188 11 13 19 40 20 60 0 20 6 54 13 76 9 31 18 42 41
48 17 5 59 24 95 42 50 26 90 37 173 48 162 22 180 42 155 167 -13 65 -13 70
2 65 10 -3 23 1 29 9 10 12 9 23 -5 56 -16 35 -22 40 -51 40 -21 0 -36 6 -41
17 -25 47 -53 565 -32 578 13 8 62 -20 271 -157 182 -118 253 -149 387 -168
102 -14 180 -6 249 25 54 24 146 83 151 97 7 17 28 7 55 -27 27 -34 59 -45 72
-25 3 5 1 10 -5 10 -7 0 -9 8 -5 20 5 15 2 20 -10 20 -13 0 -16 6 -11 23 4 12
9 35 13 51 10 45 113 78 105 33 -2 -9 2 -17 8 -17 5 0 10 -22 10 -51 0 -66 22
-101 81 -134 58 -31 129 -41 187 -26 53 15 122 80 122 115 0 36 12 39 71 16
28 -12 53 -19 56 -17 2 2 -10 19 -27 37 -36 38 -122 189 -140 245 -7 22 -23
53 -36 68 -32 38 -21 57 64 103 151 84 330 221 440 337 46 50 52 60 52 100 0
57 -19 121 -92 302 -80 199 -212 467 -287 584 -33 52 -63 103 -67 114 -5 16 6
31 49 69 64 56 87 109 87 198 0 71 -14 112 -57 173 -67 91 -184 145 -289 133
-73 -8 -154 -42 -185 -76 -17 -18 -41 -30 -68 -35 -26 -4 -44 -13 -47 -23 -13
-47 -70 -145 -95 -166 -16 -14 -29 -31 -29 -40 0 -8 18 -36 40 -61 48 -55 72
-100 94 -174 17 -57 15 -71 -12 -71 -28 0 -118 46 -185 94 -89 64 -354 343
-392 414 -46 86 -88 144 -195 266 -180 208 -290 361 -321 448 -11 32 -10 42
10 90 13 29 37 67 54 85 40 42 46 83 46 324 1 152 -2 206 -14 240 -19 54 -34
197 -37 349 -2 112 -1 118 40 235 23 66 54 181 67 255 14 74 27 143 29 153 4
16 -31 17 -630 17 l-634 0 0 -3130z m987 1168 c11 -13 82 -124 157 -247 75
-123 156 -247 180 -275 24 -28 96 -127 160 -221 150 -219 213 -299 330 -414
l94 -94 -53 -71 c-85 -112 -90 -153 -40 -286 16 -40 16 -58 5 -172 -7 -71 -16
-128 -20 -128 -11 0 -43 40 -119 149 -80 115 -195 230 -270 270 l-57 30 -68
-45 c-91 -61 -173 -145 -223 -229 -22 -39 -82 -119 -133 -180 -102 -122 -79
-111 -225 -107 l-65 2 0 85 c0 55 6 99 16 123 8 20 26 89 39 152 13 63 31 131
39 151 29 70 18 243 -35 538 l-20 114 36 143 c43 169 43 213 1 233 -25 12 -27
15 -12 23 9 5 16 20 16 33 0 13 11 37 25 53 14 17 25 34 25 39 0 5 13 27 30
49 19 25 30 51 30 73 0 20 10 47 24 65 13 17 36 56 51 86 44 89 50 93 82 58z
m1781 -1741 c34 -67 63 -126 62 -130 0 -7 -94 -142 -164 -237 -54 -73 -162
-171 -215 -197 l-54 -27 -20 25 c-43 53 -4 197 103 376 61 101 208 313 218
313 4 0 35 -55 70 -123z m-1448 -279 c17 -35 30 -80 30 -100 0 -33 -3 -38 -22
-38 -13 0 -36 8 -53 18 -16 10 -42 22 -57 25 -37 10 -35 29 6 74 18 21 38 48
45 61 6 12 14 22 17 22 3 0 18 -28 34 -62z m-666 -818 c37 -113 86 -301 86
-332 0 -11 -8 -18 -19 -18 -11 0 -23 -4 -26 -10 -13 -21 -37 -8 -52 28 -22 52
-40 167 -49 303 -6 111 -3 139 16 139 4 0 24 -50 44 -110z"/>
</g>
</svg>
