<?xml version="1.0" standalone="no"?>
<!DOCTYPE svg PUBLIC "-//W3C//DTD SVG 20010904//EN"
 "http://www.w3.org/TR/2001/REC-SVG-20010904/DTD/svg10.dtd">
<svg version="1.0" xmlns="http://www.w3.org/2000/svg"
 width="1280.000000pt" height="960.000000pt" viewBox="0 0 1280.000000 960.000000"
 preserveAspectRatio="xMidYMid meet">
<metadata>
Created by potrace 1.15, written by Peter Selinger 2001-2017
</metadata>
<g transform="translate(0.000000,960.000000) scale(0.100000,-0.100000)"
fill="#000000" stroke="none">
<path d="M6229 9581 c-405 -88 -689 -458 -666 -866 13 -218 98 -405 255 -559
98 -96 212 -163 347 -206 88 -27 281 -38 381 -21 403 71 695 416 695 824 0
262 -101 481 -304 654 -184 156 -469 226 -708 174z"/>
<path d="M5000 8305 c-248 -68 -510 -297 -1281 -1120 -463 -494 -535 -579
-655 -767 -84 -133 -131 -232 -156 -332 -17 -67 -20 -100 -15 -206 8 -192 51
-320 158 -475 112 -162 241 -256 827 -598 266 -156 548 -310 865 -474 l228
-118 1 -990 c1 -1073 2 -1118 53 -1221 53 -109 180 -201 330 -239 77 -19 246
-20 311 0 72 21 126 65 162 133 42 79 60 162 70 323 10 156 -5 2700 -16 2711
-4 4 -313 196 -687 428 -374 232 -684 425 -688 429 -4 5 209 236 474 515 266
278 486 503 490 499 4 -5 53 -87 110 -183 56 -96 131 -220 167 -275 36 -55 94
-149 129 -210 101 -172 160 -220 298 -243 33 -6 303 -13 600 -16 735 -9 825 2
930 115 53 57 89 130 104 214 39 209 -30 323 -234 388 -186 60 -519 74 -960
42 l-100 -7 -69 133 c-299 578 -603 1097 -721 1232 -90 103 -285 247 -397 294
-79 33 -240 42 -328 18z"/>
<path d="M9217 7870 c-196 -248 -355 -450 -353 -450 2 0 42 -7 90 -15 173 -30
389 -114 533 -207 70 -46 128 -99 308 -287 55 -58 126 -124 158 -147 161 -119
468 -214 776 -239 l84 -7 -18 29 c-13 20 -1205 1750 -1220 1770 -1 2 -162
-200 -358 -447z"/>
<path d="M11672 6975 c-244 -261 -444 -477 -445 -481 -1 -4 18 -14 43 -22 153
-49 354 -136 490 -210 186 -103 289 -142 379 -142 182 0 376 97 585 292 l79
73 -333 470 c-182 259 -337 475 -344 482 -8 9 -114 -99 -454 -462z"/>
<path d="M2180 4744 c-374 -34 -712 -141 -1017 -322 -990 -587 -1412 -1778
-1011 -2857 183 -494 537 -918 998 -1195 285 -172 629 -286 969 -321 145 -15
483 -6 611 16 396 67 744 219 1075 468 109 82 344 321 432 438 249 332 404
713 458 1122 28 216 18 537 -25 757 -47 247 -156 528 -290 750 -370 615 -970
1014 -1690 1125 -101 15 -418 27 -510 19z m556 -488 c361 -77 668 -238 927
-486 180 -172 301 -336 403 -545 286 -589 250 -1279 -95 -1835 -233 -375 -598
-662 -1020 -800 -730 -240 -1519 -22 -2029 560 -244 279 -405 641 -452 1020
-13 109 -13 341 0 450 98 787 672 1435 1435 1619 178 43 248 50 485 46 196 -2
241 -6 346 -29z"/>
<path d="M8190 4699 c-693 -77 -1320 -463 -1708 -1051 -363 -551 -475 -1228
-312 -1880 39 -156 87 -283 170 -453 308 -628 876 -1081 1565 -1250 190 -46
314 -59 550 -59 247 0 362 14 580 69 830 209 1489 868 1700 1699 89 350 97
705 25 1057 -189 920 -915 1646 -1835 1834 -206 42 -528 57 -735 34z m580
-468 c820 -143 1443 -784 1564 -1612 20 -136 20 -376 1 -519 -77 -547 -385
-1033 -845 -1333 -562 -366 -1287 -408 -1885 -110 -371 186 -683 500 -860 868
-298 618 -250 1321 130 1890 313 468 819 773 1385 835 126 13 377 4 510 -19z"/>
</g>
</svg>
