<?xml version="1.0" standalone="no"?>
<!DOCTYPE svg PUBLIC "-//W3C//DTD SVG 20010904//EN"
 "http://www.w3.org/TR/2001/REC-SVG-20010904/DTD/svg10.dtd">
<svg version="1.0" xmlns="http://www.w3.org/2000/svg"
 width="1280.000000pt" height="862.000000pt" viewBox="0 0 1280.000000 862.000000"
 preserveAspectRatio="xMidYMid meet">
<metadata>
Created by potrace 1.15, written by Peter Selinger 2001-2017
</metadata>
<g transform="translate(0.000000,862.000000) scale(0.100000,-0.100000)"
fill="#000000" stroke="none">
<path d="M7519 8209 l-235 -400 -1730 -896 c-1884 -975 -1898 -982 -1997
-1012 -37 -12 -84 -31 -105 -44 -66 -40 -281 -139 -291 -133 -5 4 -47 -9 -93
-27 -93 -38 -191 -68 -288 -91 -56 -12 -458 -76 -500 -79 -8 0 -40 15 -70 35
-30 19 -104 58 -164 87 -60 28 -124 62 -141 75 -17 13 -47 31 -66 39 -59 25
-78 55 -89 141 -12 93 -37 155 -92 219 l-41 49 23 41 c37 68 38 68 101 55 77
-16 105 -6 137 47 20 33 33 44 52 45 14 0 41 10 60 22 20 13 52 22 75 22 37 1
40 3 40 30 1 29 2 29 57 30 88 1 121 44 78 99 -11 14 -20 27 -20 30 0 2 27 15
60 27 80 30 135 93 202 228 l51 103 -6 97 c-6 109 -32 196 -94 314 -39 75
-136 183 -183 205 -179 82 -177 81 -272 59 -61 -15 -84 -27 -219 -117 -97 -65
-142 -111 -159 -166 -7 -21 -32 -59 -55 -84 -50 -54 -58 -68 -101 -177 -37
-95 -105 -208 -163 -270 -39 -42 -41 -43 -86 -36 -26 3 -112 1 -193 -6 -143
-11 -150 -13 -262 -62 -149 -65 -175 -95 -205 -236 -11 -53 -35 -107 -97 -219
l-83 -148 0 -115 c-1 -70 -6 -127 -13 -145 -7 -16 -12 -41 -11 -55 2 -14 -10
-47 -26 -75 -26 -44 -30 -62 -36 -165 -4 -63 -23 -200 -42 -305 -19 -104 -38
-214 -42 -243 -6 -47 -11 -56 -44 -76 -48 -32 -107 -95 -120 -128 -12 -32 -1
-72 24 -86 15 -8 14 -15 -14 -67 -50 -93 -41 -176 35 -342 32 -70 33 -77 18
-94 -21 -24 -11 -53 40 -111 87 -100 106 -126 106 -144 0 -33 29 -64 58 -64
48 0 79 -81 57 -149 -4 -14 -15 -21 -31 -21 -54 0 -89 -25 -113 -79 -25 -59
-22 -82 17 -124 29 -31 81 -37 102 -12 24 29 31 15 29 -57 -2 -85 8 -138 26
-138 7 0 23 9 37 19 l25 20 21 -37 c11 -21 26 -67 31 -102 23 -139 38 -176
126 -302 31 -45 98 -73 148 -64 39 7 120 74 142 117 8 15 22 59 30 96 9 37 18
74 21 82 3 9 31 -30 70 -95 86 -141 163 -251 242 -342 72 -83 87 -113 102
-205 6 -37 22 -88 36 -114 24 -45 25 -54 19 -143 -7 -99 5 -242 30 -364 28
-134 69 -242 161 -421 50 -99 131 -279 179 -400 113 -287 165 -408 230 -530
82 -154 61 -144 201 -96 65 22 135 43 155 46 l36 7 18 -74 c22 -91 58 -159 95
-182 34 -20 60 -92 60 -167 0 -26 4 -50 8 -53 4 -2 41 20 81 51 46 35 69 47
62 34 l-12 -21 5032 0 c4021 0 5030 3 5026 13 -2 6 -906 1542 -2007 3412
-1101 1870 -2230 3786 -2507 4258 -278 471 -508 857 -512 857 -3 0 -112 -180
-242 -401z m-2188 -3716 l-1860 -3158 -35 2 c-46 3 -112 37 -127 65 -17 31 -5
321 22 558 14 127 23 291 29 525 7 337 8 341 39 460 35 134 42 270 17 328 -19
45 -128 190 -201 267 -34 36 -71 81 -83 100 -45 75 -108 123 -434 330 -71 45
-136 99 -215 177 -62 61 -121 114 -132 118 -10 3 -22 16 -25 30 -3 13 -27 41
-52 62 -110 92 -183 174 -195 216 -6 23 -26 77 -45 120 -19 43 -34 80 -34 83
0 2 44 33 98 68 53 35 117 84 142 110 42 43 47 46 98 46 49 0 57 3 94 40 23
22 49 40 59 40 25 0 51 30 46 51 -4 13 5 25 26 38 53 33 304 111 355 111 38 0
57 7 97 36 46 32 54 35 98 29 54 -8 92 10 107 49 7 19 25 27 122 49 62 15 153
31 202 37 110 12 145 31 167 91 9 24 24 45 33 47 9 2 15 10 14 18 -2 8 8 20
22 27 20 10 25 21 27 57 1 25 -2 61 -7 80 -7 24 -6 36 2 41 6 4 8 19 5 36 l-6
28 1692 876 c931 482 1693 875 1695 873 2 -1 -834 -1423 -1857 -3161z m4359
-463 c1057 -1795 1925 -3270 1927 -3277 4 -11 -733 -13 -3856 -13 -2124 0
-3861 2 -3861 4 0 2 236 403 523 892 288 489 1151 1953 1916 3254 1477 2509
1421 2414 1426 2408 1 -1 868 -1472 1925 -3268z m-7492 2493 c-2 -21 -9 -29
-27 -31 -38 -6 -46 13 -15 37 36 28 46 27 42 -6z m1226 -1024 c-15 -16 -25
-19 -54 -14 -59 11 -58 19 5 31 33 6 62 9 64 7 2 -1 -4 -12 -15 -24z m-1364
-339 c85 -11 156 -20 158 -20 1 0 -2 -8 -7 -18 -6 -10 -7 -29 -4 -40 4 -18 -1
-25 -31 -37 -19 -8 -45 -15 -56 -15 -17 0 -20 4 -15 22 6 17 4 20 -10 15 -9
-4 -20 -7 -25 -7 -4 0 -32 -23 -61 -51 -43 -41 -57 -50 -83 -47 -21 2 -35 11
-46 31 -14 27 -14 29 8 47 12 10 27 20 33 22 17 6 2 44 -33 84 -30 34 -30 34
-7 34 13 0 94 -9 179 -20z m120 -185 c0 -7 -151 -105 -162 -105 -5 0 4 19 21
43 25 36 37 45 78 54 65 14 63 14 63 8z m-1864 -1357 c-3 -34 -8 -63 -10 -66
-2 -2 -14 1 -25 7 -38 21 -40 104 -3 114 44 12 45 10 38 -55z m304 -108 c0
-19 -17 -36 -27 -26 -3 3 -2 17 1 31 7 28 26 25 26 -5z m171 -150 c-25 -21
-68 -36 -77 -27 -3 3 -3 15 1 26 5 17 14 21 53 21 l47 -1 -24 -19z m73 -46
c18 -47 8 -60 -61 -82 -77 -25 -131 -28 -157 -9 -15 11 -16 18 -8 34 10 18 23
21 87 25 61 3 79 7 97 26 27 26 34 27 42 6z m1263 -166 c26 -39 58 -62 166
-122 58 -33 67 -42 67 -66 0 -41 35 -78 90 -94 28 -8 65 -26 82 -39 18 -14 57
-37 86 -51 39 -20 52 -32 52 -49 0 -33 -120 -950 -125 -955 -2 -2 -9 14 -15
37 -21 78 -101 266 -180 421 -71 141 -80 164 -95 258 -21 130 -53 241 -120
413 -34 86 -57 165 -64 215 -7 44 -14 90 -17 102 -5 23 -4 23 22 -5 15 -15 38
-45 51 -65z m-1501 -14 c46 -81 78 -118 132 -154 29 -18 21 -45 -18 -65 -36
-18 -54 -5 -117 82 -44 62 -47 69 -51 144 -3 44 -2 79 1 79 3 0 27 -39 53 -86z
m224 27 c-5 -11 -10 -37 -11 -58 -1 -66 -8 -73 -54 -58 -22 8 -59 34 -82 59
-48 50 -55 72 -20 60 29 -10 106 -8 137 5 37 14 42 13 30 -8z m2401 -2199
c-17 -31 -263 -447 -267 -451 -6 -7 -127 19 -137 28 -4 4 -26 72 -49 150 -46
163 -47 160 42 161 42 1 95 15 225 64 191 72 200 74 186 48z"/>
</g>
</svg>
