<?xml version="1.0" standalone="no"?>
<!DOCTYPE svg PUBLIC "-//W3C//DTD SVG 20010904//EN"
 "http://www.w3.org/TR/2001/REC-SVG-20010904/DTD/svg10.dtd">
<svg version="1.0" xmlns="http://www.w3.org/2000/svg"
 width="1280.000000pt" height="864.000000pt" viewBox="0 0 1280.000000 864.000000"
 preserveAspectRatio="xMidYMid meet">
<metadata>
Created by potrace 1.15, written by Peter Selinger 2001-2017
</metadata>
<g transform="translate(0.000000,864.000000) scale(0.100000,-0.100000)"
fill="#000000" stroke="none">
<path d="M8050 8610 c-83 -36 -136 -94 -221 -241 -56 -95 -278 -421 -384 -562
-44 -59 -103 -98 -198 -130 -109 -38 -421 -109 -514 -118 -62 -5 -110 -18
-200 -54 -238 -95 -323 -146 -559 -335 -39 -31 -92 -55 -229 -105 -135 -49
-187 -72 -212 -97 -34 -33 -59 -90 -48 -109 15 -24 -23 -63 -130 -134 -127
-85 -165 -118 -165 -146 0 -15 -5 -19 -17 -15 -10 2 -47 11 -83 20 -36 9 -288
70 -560 136 -272 66 -569 138 -660 160 -91 22 -480 116 -865 210 -385 94
-1017 247 -1405 341 -388 94 -777 189 -865 210 -88 22 -231 56 -317 77 -156
37 -157 37 -164 67 -14 67 -55 181 -73 204 l-18 24 -52 -29 c-29 -15 -66 -43
-82 -62 -30 -34 -30 -36 -23 -111 16 -172 17 -174 49 -191 20 -10 63 -15 130
-16 55 0 136 -9 180 -18 866 -189 1617 -364 3840 -895 253 -60 566 -135 695
-166 340 -81 308 -70 321 -114 10 -33 8 -48 -10 -102 -11 -34 -20 -63 -18 -64
1 -1 29 -7 62 -14 55 -12 65 -18 120 -79 33 -36 80 -87 105 -113 l45 -48 67
39 c54 31 82 40 140 46 58 5 84 14 126 40 80 51 140 111 148 147 7 33 82 189
106 219 10 14 35 19 109 24 l96 7 6 -113 c6 -108 6 -113 -16 -131 -12 -10 -42
-26 -67 -35 -76 -27 -93 -40 -135 -101 l-40 -58 -5 -163 -5 -162 -52 -49 c-29
-26 -53 -56 -53 -67 0 -10 9 -38 19 -60 l19 -41 -41 -129 c-69 -221 -59 -292
93 -614 38 -80 98 -219 133 -311 l66 -165 -27 -116 -26 -117 -60 -6 c-34 -4
-83 -5 -110 -3 -48 3 -50 2 -92 -49 -23 -28 -47 -59 -52 -69 -8 -15 -165 77
-1245 729 -679 411 -1241 749 -1248 752 -17 6 -65 -73 -52 -85 4 -5 580 -382
1278 -838 1102 -719 2513 -1649 2538 -1672 16 -14 -209 -160 -247 -160 -8 0
-18 12 -24 28 -15 42 -100 151 -127 164 -23 10 -29 8 -58 -20 -17 -17 -59 -72
-92 -121 -57 -86 -64 -92 -147 -137 -47 -25 -101 -56 -119 -69 l-34 -22 -235
79 c-253 86 -434 148 -1170 398 -261 89 -578 197 -705 240 -126 43 -304 103
-394 134 -90 31 -170 56 -176 56 -9 0 -9 -23 1 -97 8 -53 16 -98 18 -101 5 -4
119 -45 631 -227 292 -104 508 -181 970 -345 124 -44 326 -116 450 -160 124
-44 326 -116 450 -160 124 -44 325 -116 448 -159 696 -248 838 -300 1107 -409
273 -111 511 -207 1365 -554 176 -72 430 -175 564 -229 272 -110 315 -135 889
-518 145 -97 283 -188 306 -204 66 -43 145 -53 268 -32 86 14 290 74 305 89 3
2 37 -7 76 -20 313 -107 942 -284 1011 -284 55 0 150 56 236 138 44 42 80 82
80 89 0 16 -192 59 -355 79 -95 11 -180 15 -264 11 -101 -4 -136 -2 -190 13
-84 24 -293 108 -481 195 -152 70 -453 200 -1253 538 l-478 202 -862 627
c-474 345 -863 632 -865 638 -2 5 30 45 70 87 40 43 187 218 325 388 229 283
279 337 563 620 171 171 324 328 339 350 43 61 44 80 11 156 -17 37 -30 72
-30 78 0 6 -12 21 -26 34 -15 12 -39 49 -55 82 -46 100 -81 143 -160 196 -95
63 -131 76 -259 93 -58 7 -122 21 -143 30 l-39 16 30 37 c16 21 36 52 45 68 8
17 26 40 39 52 26 25 98 53 134 53 66 0 186 360 149 447 -14 33 -92 134 -114
148 -45 28 -214 66 -331 74 -69 5 -169 19 -224 30 -54 12 -124 21 -156 21 -33
0 -89 7 -126 16 -37 8 -77 13 -89 10 -35 -9 -68 34 -73 97 -4 50 -2 55 44 117
27 36 82 106 124 155 41 50 97 118 123 153 27 34 54 62 61 62 7 0 24 9 38 19
40 32 95 40 283 42 264 2 408 -18 550 -78 245 -102 273 -111 355 -123 47 -6
139 -22 205 -35 66 -13 167 -27 225 -30 150 -10 413 -50 495 -76 79 -26 110
-27 316 -16 l146 8 -73 -363 c-40 -200 -146 -721 -234 -1158 -258 -1273 -318
-1572 -400 -1975 l-76 -380 -122 4 c-144 4 -142 6 -117 -103 20 -93 40 -119
115 -148 l60 -23 -5 -55 c-4 -30 -12 -120 -19 -198 l-12 -144 24 -9 c47 -18
48 -17 61 144 7 83 15 178 18 209 l6 58 64 36 65 36 -7 76 c-15 188 -6 256
149 1047 127 647 558 2750 601 2933 5 19 12 22 58 22 33 0 61 6 77 17 55 39
140 153 140 188 0 26 23 48 72 68 55 23 72 54 58 110 -9 33 -9 50 -1 65 6 12
11 37 11 57 0 32 -8 44 -52 87 -68 64 -65 62 -192 88 -84 18 -126 21 -190 16
-44 -3 -115 -9 -156 -11 -104 -8 -115 -11 -155 -46 l-35 -31 -213 20 c-234 23
-266 31 -400 108 -64 37 -95 48 -169 60 -86 14 -96 18 -164 70 -39 30 -83 68
-97 84 -16 17 -117 75 -256 145 -127 64 -245 130 -263 147 -18 17 -67 44 -108
60 -78 30 -346 88 -404 88 -38 0 -46 12 -46 66 0 46 59 161 115 224 61 68 71
86 85 150 7 30 21 73 31 95 30 65 26 249 -8 387 -20 83 -33 115 -52 131 -13
12 -52 49 -85 82 -53 51 -76 66 -161 99 -146 57 -266 96 -289 95 -12 -1 -50
-14 -86 -29z m-381 -4860 c79 -6 149 -13 155 -17 6 -4 42 -31 79 -61 57 -45
67 -57 55 -67 -7 -7 -84 -58 -170 -114 -137 -87 -159 -98 -167 -83 -13 26
-151 350 -151 356 0 3 12 3 28 1 15 -3 92 -9 171 -15z m1325 -2205 c105 -74
187 -135 183 -135 -6 0 -417 159 -429 167 -9 5 39 103 50 103 4 0 92 -61 196
-135z m1995 -1036 l145 -69 -35 -38 c-19 -20 -35 -38 -36 -40 -2 -6 -292 232
-292 240 -1 9 47 -11 218 -93z"/>
</g>
</svg>
